<?xml version="1.0" standalone="no"?><!DOCTYPE svg PUBLIC "-//W3C//DTD SVG 1.1//EN" "http://www.w3.org/Graphics/SVG/1.1/DTD/svg11.dtd"><svg t="1611749616965" class="icon" viewBox="0 0 1024 1024" version="1.1" xmlns="http://www.w3.org/2000/svg" p-id="3304" xmlns:xlink="http://www.w3.org/1999/xlink" width="200" height="200"><defs><style type="text/css"></style></defs><path d="M380.7 217.5c-3.6 3.9-7 7.9-10.3 12l-2.4 3.3c-2.9 3.8-5.6 7.8-8.1 11.8-0.9 1.4-1.8 2.9-2.6 4.3-2.3 3.8-4.4 7.8-6.4 11.8-0.9 1.8-1.7 3.5-2.5 5.3-1.8 3.9-3.3 7.8-4.8 11.8-0.7 2-1.5 4-2.2 6-1.3 4-2.4 8.1-3.5 12.2-0.5 2.1-1.2 4.2-1.6 6.3-0.9 4.4-1.6 8.8-2.2 13.3-0.3 2-0.7 3.9-0.9 5.8-0.7 6.4-1.1 13-1.1 19.6 0 8.4 0.8 16.7 1.9 24.8 0.3 2 0.6 3.9 0.9 5.9 1.4 8 3.1 15.9 5.5 23.5 0 0.1 0.1 0.3 0.1 0.4 2.4 7.6 5.4 14.8 8.7 21.9 0.8 1.6 1.5 3.2 2.3 4.8 3.6 7.1 7.5 14.1 12 20.6l0.1 0.1c4.5 6.6 9.5 12.7 14.8 18.6l3 3.3c11 11.8 23.6 22 37.5 30.5 1.1 0.7 2.2 1.4 3.3 2 7.1 4.2 14.5 8 22.2 11.1 21.3 8.8 44.7 13.7 69.2 13.7s47.8-4.9 69.1-13.7c7.7-3.2 15.1-7 22.3-11.2 1.1-0.6 2.1-1.3 3.2-1.9 13.9-8.5 26.5-18.8 37.6-30.6 1-1.1 2-2.1 2.9-3.2 5.3-5.9 10.3-12.1 14.8-18.7l0.1-0.1c4.5-6.6 8.4-13.5 12-20.7 0.8-1.6 1.5-3.2 2.3-4.8 3.3-7.1 6.3-14.3 8.7-21.9 0.1-0.2 0.1-0.3 0.2-0.5 2.4-7.6 4.1-15.5 5.5-23.5 0.3-2 0.6-3.9 0.9-5.9 1.1-8.1 1.9-16.4 1.9-24.8 0-6.6-0.4-13.2-1.1-19.6-0.2-2-0.6-3.9-0.9-5.9-0.6-4.4-1.3-8.9-2.2-13.2-0.5-2.2-1.1-4.2-1.6-6.4-1-4.1-2.1-8.1-3.5-12.1-0.7-2-1.5-4-2.2-6-1.5-4-3.1-7.9-4.8-11.8-0.8-1.8-1.7-3.5-2.6-5.3-2-4-4.1-7.9-6.3-11.7-0.9-1.5-1.7-2.9-2.6-4.3-2.6-4.1-5.3-8-8.1-11.8-0.8-1.1-1.6-2.2-2.4-3.2-3.3-4.2-6.7-8.2-10.3-12.1-0.6-0.6-1.1-1.3-1.7-1.9-4.3-4.5-8.7-8.7-13.4-12.7-31.7-27-72.7-43.4-117.5-43.4-44.9 0-85.9 16.4-117.5 43.4-4.7 4-9.1 8.2-13.4 12.7-1.2 0.8-1.7 1.5-2.3 2.1z" fill="#40c9c6" p-id="3305"></path><path d="M640.1 520.3c0.5 0 1 0.1 1.5 0.1 87.9 0 159.1-71.2 159.1-159.1 0-70.9-46.7-130.3-110.8-150.8C717 247 733.2 292.1 733.2 341c0 74-36.8 139.4-93.1 179.3zM384.9 520.4c0.6 0 1.2-0.1 1.8-0.1-56.2-39.9-93.1-105.3-93.1-179.3 0-48.9 16.3-94 43.4-130.6-64.3 20.4-111.1 79.9-111.1 150.9-0.1 87.9 71.2 159.1 159 159.1zM283.5 561.1c-102 11-181.5 97.3-181.5 202.3v31.8c0 8.3 6.7 15 15 15h35.4v-26.6c-0.1-95.6 53-179 131.1-222.5z" fill="#40c9c6" p-id="3306"></path><path d="M618 567.4H407c-119.4 0-216.2 96.8-216.2 216.2V837c0 8.8 7.1 15.9 15.9 15.9h611.6c8.8 0 15.9-7.1 15.9-15.9V783.6c0-119.4-96.8-216.2-216.2-216.2z" fill="#40c9c6" p-id="3307"></path><path d="M741.4 561.1c78.1 43.5 131.2 126.9 131.2 222.5v26.6H908c8.3 0 15-6.7 15-15v-31.8c-0.1-105-79.6-191.3-181.6-202.3z" fill="#40c9c6" p-id="3308"></path></svg>