<?xml version="1.0" standalone="no"?><!DOCTYPE svg PUBLIC "-//W3C//DTD SVG 1.1//EN" "http://www.w3.org/Graphics/SVG/1.1/DTD/svg11.dtd"><svg t="1611987417402" class="icon" viewBox="0 0 1024 1024" version="1.1" xmlns="http://www.w3.org/2000/svg" p-id="3931" xmlns:xlink="http://www.w3.org/1999/xlink" width="200" height="200"><defs><style type="text/css"></style></defs><path d="M731.2 658.4c92 38.4 63.2 9.6 137.6 46.4 117.6 58.4 117.6 220 117.6 220l0 0c0 0 0 0 0 0 0 24.8-20 44-44 44l-856 0c-24.8 0-44-20-44-44 0 0 0 0 0 0l0 0c0 0 0-161.6 117.6-220.8 74.4-36.8 45.6-7.2 137.6-44.8 92-37.6 113.6-51.2 113.6-51.2l0.8-87.2c0 0-34.4-26.4-44.8-108.8-21.6 6.4-28.8-25.6-29.6-45.6-0.8-19.2-12.8-80 13.6-74.4-5.6-40-9.6-76.8-7.2-96 6.4-68 72-138.4 172-143.2 117.6 4.8 164.8 76 171.2 143.2 1.6 19.2-2.4 56-8 96 26.4-5.6 15.2 55.2 13.6 74.4-0.8 20-8.8 51.2-29.6 44.8-10.4 82.4-44.8 108.8-44.8 108.8L617.6 608C617.6 608 639.2 620.8 731.2 658.4z" p-id="3932" fill="#40c9c6"></path></svg>