<?xml version="1.0" standalone="no"?><!DOCTYPE svg PUBLIC "-//W3C//DTD SVG 1.1//EN" "http://www.w3.org/Graphics/SVG/1.1/DTD/svg11.dtd"><svg t="1611987181368" class="icon" viewBox="0 0 1024 1024" version="1.1" xmlns="http://www.w3.org/2000/svg" p-id="2778" xmlns:xlink="http://www.w3.org/1999/xlink" width="200" height="200"><defs><style type="text/css"></style></defs><path d="M284.672 358.4h311.296c12.288 0 20.48-8.192 20.48-20.48s-8.192-20.48-20.48-20.48H284.672c-12.288 0-20.48 8.192-20.48 20.48s10.24 20.48 20.48 20.48zM552.96 512c0-12.288-8.192-20.48-20.48-20.48H286.72c-12.288 0-20.48 8.192-20.48 20.48s8.192 20.48 20.48 20.48h245.76c10.24 0 20.48-8.192 20.48-20.48zM468.992 665.6H286.72c-12.288 0-20.48 8.192-20.48 20.48s8.192 20.48 20.48 20.48h182.272c12.288 0 20.48-8.192 20.48-20.48s-10.24-20.48-20.48-20.48zM735.232 626.688l-112.64 116.736-47.104-49.152c-8.192-8.192-20.48-8.192-28.672 0-8.192 8.192-8.192 20.48 0 28.672l61.44 65.536c4.096 4.096 8.192 6.144 14.336 6.144s10.24-2.048 14.336-6.144l126.976-131.072c8.192-8.192 8.192-20.48 0-28.672-8.192-10.24-20.48-10.24-28.672-2.048z" p-id="2779" fill="#40c9c6"></path><path d="M774.144 73.728H249.856c-51.2 0-94.208 43.008-94.208 94.208v688.128c0 51.2 43.008 94.208 94.208 94.208h524.288c51.2 0 94.208-43.008 94.208-94.208V167.936c0-51.2-43.008-94.208-94.208-94.208z m53.248 782.336c0 28.672-24.576 53.248-53.248 53.248H249.856c-28.672 0-53.248-24.576-53.248-53.248V167.936c0-28.672 24.576-53.248 53.248-53.248h524.288c28.672 0 53.248 24.576 53.248 53.248v688.128z" p-id="2780" fill="#40c9c6"></path></svg>